<?xml version="1.0" encoding="utf-8"?>
<svg viewBox="0 0 40 40" xmlns="http://www.w3.org/2000/svg">
  <path d="M 35.714 0 L 4.286 0 C 1.92 0 0 1.92 0 4.286 L 0 35.714 C 0 38.08 1.92 40 4.286 40 L 35.714 40 C 38.08 40 40 38.08 40 35.714 L 40 4.286 C 40 1.92 38.08 0 35.714 0 Z M 24.759 34.259 C 24.009 34.393 23.732 33.929 23.732 33.545 C 23.732 33.063 23.75 30.598 23.75 28.607 C 23.75 27.214 23.286 26.33 22.741 25.866 C 26.045 25.5 29.527 25.045 29.527 19.339 C 29.527 17.714 28.946 16.902 28 15.857 C 28.152 15.473 28.661 13.893 27.848 11.839 C 26.607 11.455 23.768 13.438 23.768 13.438 C 22.589 13.107 21.313 12.938 20.054 12.938 C 18.795 12.938 17.518 13.107 16.339 13.438 C 16.339 13.438 13.5 11.455 12.259 11.839 C 11.446 13.884 11.946 15.464 12.107 15.857 C 11.161 16.902 10.714 17.714 10.714 19.339 C 10.714 25.018 14.045 25.5 17.348 25.866 C 16.92 26.25 16.536 26.911 16.402 27.857 C 15.554 28.241 13.384 28.902 12.089 26.616 C 11.277 25.205 9.813 25.089 9.813 25.089 C 8.366 25.071 9.714 26 9.714 26 C 10.679 26.446 11.357 28.161 11.357 28.161 C 12.223 30.813 16.366 29.92 16.366 29.92 C 16.366 31.161 16.384 33.179 16.384 33.545 C 16.384 33.929 16.116 34.393 15.357 34.259 C 9.464 32.286 5.339 26.679 5.339 20.125 C 5.339 11.929 11.607 5.705 19.804 5.705 C 28 5.705 34.643 11.929 34.643 20.125 C 34.652 26.679 30.652 32.295 24.759 34.259 Z M 16 28.804 C 15.83 28.839 15.67 28.768 15.652 28.652 C 15.634 28.518 15.75 28.402 15.92 28.366 C 16.089 28.348 16.25 28.42 16.268 28.536 C 16.295 28.652 16.179 28.768 16 28.804 Z M 15.152 28.723 C 15.152 28.839 15.018 28.938 14.839 28.938 C 14.643 28.955 14.509 28.857 14.509 28.723 C 14.509 28.607 14.643 28.509 14.821 28.509 C 14.991 28.491 15.152 28.589 15.152 28.723 Z M 13.929 28.625 C 13.893 28.741 13.714 28.795 13.563 28.741 C 13.393 28.705 13.277 28.571 13.313 28.455 C 13.348 28.339 13.527 28.286 13.679 28.321 C 13.857 28.375 13.973 28.509 13.929 28.625 Z M 12.83 28.143 C 12.75 28.241 12.58 28.223 12.446 28.089 C 12.313 27.973 12.277 27.804 12.366 27.723 C 12.446 27.625 12.616 27.643 12.75 27.777 C 12.866 27.893 12.911 28.071 12.83 28.143 Z M 12.018 27.33 C 11.938 27.384 11.786 27.33 11.688 27.196 C 11.589 27.063 11.589 26.911 11.688 26.848 C 11.786 26.768 11.938 26.83 12.018 26.964 C 12.116 27.098 12.116 27.259 12.018 27.33 L 12.018 27.33 Z M 11.438 26.464 C 11.357 26.545 11.223 26.5 11.125 26.411 C 11.027 26.295 11.009 26.161 11.089 26.098 C 11.17 26.018 11.304 26.063 11.402 26.152 C 11.5 26.268 11.518 26.402 11.438 26.464 Z M 10.839 25.804 C 10.804 25.884 10.688 25.902 10.589 25.839 C 10.473 25.786 10.42 25.688 10.455 25.607 C 10.491 25.554 10.589 25.527 10.705 25.571 C 10.821 25.634 10.875 25.732 10.839 25.804 Z"/>
</svg>