<?xml version="1.0" encoding="utf-8"?>
<svg viewBox="0 0 40 40" xmlns="http://www.w3.org/2000/svg">
  <path d="M 34.286 0 L 5.714 0 C 2.556 0 0 2.556 0 5.714 L 0 34.286 C 0 37.445 2.555 40 5.714 40 L 34.286 40 C 37.445 40 40 37.445 40 34.286 L 40 5.714 C 40 2.556 37.446 0 34.286 0 Z M 34.286 27.143 C 34.286 28.721 33.006 30 31.429 30 L 8.571 30 C 6.994 30 5.714 28.721 5.714 27.143 L 5.714 17.313 L 18.08 23.497 C 18.688 23.795 19.339 23.946 20 23.946 C 20.661 23.946 21.317 23.796 21.917 23.496 L 34.286 17.313 L 34.286 27.143 Z M 34.286 14.116 L 20.643 20.939 C 20.241 21.14 19.767 21.14 19.365 20.939 L 5.714 14.116 L 5.714 12.857 C 5.714 11.279 6.994 10 8.571 10 L 31.429 10 C 33.006 10 34.286 11.279 34.286 12.857 L 34.286 14.116 Z"/>
</svg>