<?xml version="1.0" encoding="utf-8"?>
<svg viewBox="0 0 40 40" xmlns="http://www.w3.org/2000/svg">
  <path d="M 37.143 0 L 2.848 0 C 1.277 0 0 1.295 0 2.884 L 0 37.116 C 0 38.705 1.277 40 2.848 40 L 37.143 40 C 38.714 40 40 38.705 40 37.116 L 40 2.884 C 40 1.295 38.714 0 37.143 0 Z M 12.089 34.286 L 6.161 34.286 L 6.161 15.196 L 12.098 15.196 L 12.098 34.286 L 12.089 34.286 Z M 9.125 12.589 C 7.223 12.589 5.688 11.045 5.688 9.152 C 5.688 7.259 7.223 5.714 9.125 5.714 C 11.018 5.714 12.563 7.259 12.563 9.152 C 12.563 11.054 11.027 12.589 9.125 12.589 L 9.125 12.589 Z M 34.313 34.286 L 28.384 34.286 L 28.384 25 C 28.384 22.786 28.339 19.938 25.304 19.938 C 22.214 19.938 21.741 22.348 21.741 24.839 L 21.741 34.286 L 15.813 34.286 L 15.813 15.196 L 21.5 15.196 L 21.5 17.804 L 21.58 17.804 C 22.375 16.304 24.313 14.723 27.196 14.723 C 33.196 14.723 34.313 18.679 34.313 23.821 L 34.313 34.286 L 34.313 34.286 Z"/>
</svg>