<svg xmlns="http://www.w3.org/2000/svg"  viewBox="0 0 100 100" width="100px" height="100px"><path fill="#52bea0" d="M69.882,81.961h-39c-6.6,0-12-5.4-12-12v-39c0-6.6,5.4-12,12-12h39c6.6,0,12,5.4,12,12v39C81.882,76.561,76.482,81.961,69.882,81.961z"/><path fill="#1f212b" d="M69.882,82.961h-39c-7.168,0-13-5.832-13-13v-39c0-7.168,5.832-13,13-13h39c7.168,0,13,5.832,13,13v39C82.882,77.129,77.05,82.961,69.882,82.961z M30.882,19.961c-6.065,0-11,4.935-11,11v39c0,6.065,4.935,11,11,11h39c6.065,0,11-4.935,11-11v-39c0-6.065-4.935-11-11-11H30.882z"/><path fill="#52bea0" d="M77.382,48.461v18.663c0,5.685-4.652,10.337-10.337,10.337H33.719c-5.685,0-10.337-4.652-10.337-10.337V33.798c0-5.685,4.652-10.337,10.337-10.337h33.663"/><path fill="#1f212b" d="M67.045 77.961H33.719c-5.976 0-10.837-4.861-10.837-10.837V33.798c0-5.976 4.861-10.837 10.837-10.837h33.663c.276 0 .5.224.5.5s-.224.5-.5.5H33.719c-5.424 0-9.837 4.413-9.837 9.837v33.326c0 5.424 4.413 9.837 9.837 9.837h33.326c5.424 0 9.837-4.413 9.837-9.837V48.461c0-.276.224-.5.5-.5s.5.224.5.5v18.663C77.882 73.099 73.021 77.961 67.045 77.961zM77.382 45.961c-.276 0-.5-.224-.5-.5v-4c0-.276.224-.5.5-.5s.5.224.5.5v4C77.882 45.737 77.658 45.961 77.382 45.961zM77.382 39.961c-.276 0-.5-.224-.5-.5v-2c0-.276.224-.5.5-.5s.5.224.5.5v2C77.882 39.737 77.658 39.961 77.382 39.961z"/><path fill="#fdfcee" d="M39.382,41.461h-4c-1.65,0-3-1.35-3-3v-2c0-1.65,1.35-3,3-3h4c1.65,0,3,1.35,3,3v2C42.382,40.111,41.032,41.461,39.382,41.461z"/><path fill="#1f212b" d="M39.382,41.961h-4c-1.93,0-3.5-1.57-3.5-3.5v-2c0-1.93,1.57-3.5,3.5-3.5h4c1.93,0,3.5,1.57,3.5,3.5v2C42.882,40.39,41.312,41.961,39.382,41.961z M35.382,33.961c-1.379,0-2.5,1.122-2.5,2.5v2c0,1.378,1.121,2.5,2.5,2.5h4c1.379,0,2.5-1.122,2.5-2.5v-2c0-1.378-1.121-2.5-2.5-2.5H35.382z"/><path fill="#fdfcee" d="M65.382,41.461h-17c-1.65,0-3-1.35-3-3v-2c0-1.65,1.35-3,3-3h17c1.65,0,3,1.35,3,3v2C68.382,40.111,67.032,41.461,65.382,41.461z"/><path fill="#1f212b" d="M65.382,41.961h-17c-1.93,0-3.5-1.57-3.5-3.5v-2c0-1.93,1.57-3.5,3.5-3.5h17c1.93,0,3.5,1.57,3.5,3.5v2C68.882,40.39,67.312,41.961,65.382,41.961z M48.382,33.961c-1.379,0-2.5,1.122-2.5,2.5v2c0,1.378,1.121,2.5,2.5,2.5h17c1.379,0,2.5-1.122,2.5-2.5v-2c0-1.378-1.121-2.5-2.5-2.5H48.382z"/><path fill="#fdfcee" d="M39.382,53.461h-4c-1.65,0-3-1.35-3-3v-2c0-1.65,1.35-3,3-3h4c1.65,0,3,1.35,3,3v2C42.382,52.111,41.032,53.461,39.382,53.461z"/><path fill="#1f212b" d="M39.382,53.961h-4c-1.93,0-3.5-1.57-3.5-3.5v-2c0-1.93,1.57-3.5,3.5-3.5h4c1.93,0,3.5,1.57,3.5,3.5v2C42.882,52.39,41.312,53.961,39.382,53.961z M35.382,45.961c-1.379,0-2.5,1.122-2.5,2.5v2c0,1.378,1.121,2.5,2.5,2.5h4c1.379,0,2.5-1.122,2.5-2.5v-2c0-1.378-1.121-2.5-2.5-2.5H35.382z"/><path fill="#fdfcee" d="M65.382,53.461h-17c-1.65,0-3-1.35-3-3v-2c0-1.65,1.35-3,3-3h17c1.65,0,3,1.35,3,3v2C68.382,52.111,67.032,53.461,65.382,53.461z"/><path fill="#1f212b" d="M65.382,53.961h-17c-1.93,0-3.5-1.57-3.5-3.5v-2c0-1.93,1.57-3.5,3.5-3.5h17c1.93,0,3.5,1.57,3.5,3.5v2C68.882,52.39,67.312,53.961,65.382,53.961z M48.382,45.961c-1.379,0-2.5,1.122-2.5,2.5v2c0,1.378,1.121,2.5,2.5,2.5h17c1.379,0,2.5-1.122,2.5-2.5v-2c0-1.378-1.121-2.5-2.5-2.5H48.382z"/><path fill="#fdfcee" d="M39.382,66.461h-4c-1.65,0-3-1.35-3-3v-2c0-1.65,1.35-3,3-3h4c1.65,0,3,1.35,3,3v2C42.382,65.111,41.032,66.461,39.382,66.461z"/><path fill="#1f212b" d="M39.382,66.961h-4c-1.93,0-3.5-1.57-3.5-3.5v-2c0-1.93,1.57-3.5,3.5-3.5h4c1.93,0,3.5,1.57,3.5,3.5v2C42.882,65.39,41.312,66.961,39.382,66.961z M35.382,58.961c-1.379,0-2.5,1.122-2.5,2.5v2c0,1.378,1.121,2.5,2.5,2.5h4c1.379,0,2.5-1.122,2.5-2.5v-2c0-1.378-1.121-2.5-2.5-2.5H35.382z"/><path fill="#fdfcee" d="M65.382,66.461h-17c-1.65,0-3-1.35-3-3v-2c0-1.65,1.35-3,3-3h17c1.65,0,3,1.35,3,3v2C68.382,65.111,67.032,66.461,65.382,66.461z"/><path fill="#1f212b" d="M65.382,66.961h-17c-1.93,0-3.5-1.57-3.5-3.5v-2c0-1.93,1.57-3.5,3.5-3.5h17c1.93,0,3.5,1.57,3.5,3.5v2C68.882,65.39,67.312,66.961,65.382,66.961z M48.382,58.961c-1.379,0-2.5,1.122-2.5,2.5v2c0,1.378,1.121,2.5,2.5,2.5h17c1.379,0,2.5-1.122,2.5-2.5v-2c0-1.378-1.121-2.5-2.5-2.5H48.382z"/></svg>